/vscmnt/brussel_pixiu_data/_data_brussel/112/vsc11236/PredSimResults/SUBJ10mtu3D/weighted-LRposFixed/trackIG/worker_05.mot
version=1
nRows=5
nColumns=50
inDegrees=yes
endheader
                time	         pelvis_tilt	         pelvis_list	     pelvis_rotation	           pelvis_tx	           pelvis_ty	           pelvis_tz	       hip_flexion_r	     hip_adduction_r	      hip_rotation_r	        knee_angle_r	       ankle_angle_r	         mtp_angle_r	       hip_flexion_l	     hip_adduction_l	      hip_rotation_l	        knee_angle_l	       ankle_angle_l	         mtp_angle_l	    lumbar_extension	      lumbar_bending	     lumbar_rotation	 ercspn_r/activation	 intobl_r/activation	 extobl_r/activation	    abd_r/activation	    add_r/activation	hamstrings_r/activation	bifemsh_r/activation	glut_max_r/activation	iliopsoas_r/activation	rect_fem_r/activation	  vasti_r/activation	gastroc_r/activation	 soleus_r/activation	tib_ant_r/activation	 ercspn_l/activation	 intobl_l/activation	 extobl_l/activation	    abd_l/activation	    add_l/activation	hamstrings_l/activation	bifemsh_l/activation	glut_max_l/activation	iliopsoas_l/activation	rect_fem_l/activation	  vasti_l/activation	gastroc_l/activation	 soleus_l/activation	tib_ant_l/activation	
          1.18576720	         -5.08067273	         -2.95471108	         10.94686023	          1.28062857	          0.82675198	         -0.01638710	         29.14170008	         -1.29692465	         -8.47722674	         -4.38395449	          6.78510116	          0.25256909	        -12.25811015	         -3.14527590	          7.08859448	         -7.99485844	          9.95424427	         25.35367834	         -6.40799123	          1.08743238	         -4.05343279	          0.08811757	          0.16076057	          0.02057250	          0.01722766	          0.14755460	          0.03556097	          0.11565568	          0.01657121	          0.06948625	          0.01434311	          0.01197627	          0.00999999	          0.00999999	          0.27059449	          0.03872134	          0.00999999	          0.00999999	          0.04082755	          0.05009871	          0.02791984	          0.12605585	          0.03533888	          0.34645596	          0.00999999	          0.00999999	          0.26654773	          0.25297239	          0.01633834	
          1.19762487	         -5.14891811	         -2.75865193	         10.78011918	          1.29619228	          0.82499398	         -0.01584510	         29.20367799	         -1.11163278	         -7.47919585	         -6.06486271	          6.47953688	          0.24558916	        -12.32588515	         -2.94193995	          6.42527774	         -9.85698020	          9.45826663	         27.04408229	         -6.17301089	          1.48589465	         -4.22017789	          0.07357675	          0.13423249	          0.01717771	          0.01438482	          0.20312435	          0.03346040	          0.09657063	          0.06977207	          0.05801990	          0.01197627	          0.00999999	          0.01946559	          0.01885003	          0.27535847	          0.08279837	          0.00999999	          0.00999999	          0.03409035	          0.10088918	          0.02331261	          0.10525460	          0.02950740	          0.35864179	          0.00999999	          0.00999999	          0.22256306	          0.23928211	          0.01364225	
          1.20948254	         -5.19947975	         -2.57166097	         10.55338082	          1.31207337	          0.82339652	         -0.01525607	         29.06900357	         -0.92602368	         -6.45673407	         -7.62345571	          6.17073204	          0.23964538	        -12.22075035	         -2.73054555	          5.70979621	        -12.10049488	          8.84524292	         28.70554875	         -5.91818588	          1.91163651	         -4.36412988	          0.07057904	          0.11208197	          0.01434311	          0.05732432	          0.18647123	          0.04566849	          0.08682450	          0.08401408	          0.04844568	          0.00999999	          0.00999999	          0.01625345	          0.01573947	          0.31104029	          0.10223766	          0.00999999	          0.00999999	          0.02846489	          0.09876040	          0.01946566	          0.08788590	          0.02463820	          0.34736239	          0.00999999	          0.00999999	          0.18583658	          0.22227158	          0.01139106	
          1.22134021	         -5.23452583	         -2.39052729	         10.26652487	          1.32805121	          0.82211396	         -0.01456179	         28.77687116	         -0.71241424	         -5.51363978	         -8.91873210	          5.77989409	          0.22697237	        -11.87900399	         -2.51341159	          4.94420817	        -14.78735632	          8.05758564	         30.26601067	         -5.66576132	          2.34975045	         -4.48289851	          0.07772986	          0.09358664	          0.01197627	          0.09608558	          0.18832636	          0.04229140	          0.07249706	          0.10629103	          0.04045137	          0.00999999	          0.00999999	          0.01357137	          0.01314221	          0.32916511	          0.12539209	          0.00999999	          0.00999999	          0.02376773	          0.10758996	          0.01984170	          0.07338331	          0.02057250	          0.32895882	          0.00999999	          0.00999999	          0.15517055	          0.18770226	          0.00999999	
          1.23319788	         -5.25469600	         -2.22141455	          9.92369583	          1.34390805	          0.82126917	         -0.01377036	         28.42155237	         -0.47131370	         -4.67369027	        -10.11793452	          5.44126112	          0.21756357	        -11.25996235	         -2.30212793	          4.11870036	        -17.94221262	          7.09391262	         31.52793260	         -5.43453971	          2.80638703	         -4.57379762	          0.06899482	          0.07814334	          0.00999999	          0.11652592	          0.17963468	          0.04418480	          0.06053388	          0.10489576	          0.03377624	          0.00999999	          0.04178252	          0.01133188	          0.01097353	          0.34702986	          0.14586005	          0.00999999	          0.00999999	          0.01984567	          0.11972733	          0.02467454	          0.06127389	          0.01717771	          0.29771913	          0.00999999	          0.00999999	          0.12956491	          0.15672837	          0.00999999	
